<svg width="1024" height="1024" viewBox="0 0 1024 1024" fill="none" xmlns="http://www.w3.org/2000/svg">
<rect width="1024" height="1024" rx="100" fill="white"/>
<path d="M514.148 72.1523H509.767V114.172H514.148V72.1523Z" fill="#24336C"/>
<path d="M515.894 114.177H508.014C508.014 237.023 441.48 281.382 441.48 281.382H582.427C582.427 281.382 515.894 237.023 515.894 114.177Z" fill="#24336C"/>
<path d="M461.756 281.386H478.102V347.334H461.756V281.386Z" fill="#24336C"/>
<path d="M489.77 281.386H506.115V347.334H489.77V281.386Z" fill="#24336C"/>
<path d="M517.782 281.386H534.128V347.334H517.782V281.386Z" fill="#24336C"/>
<path d="M545.795 281.386H562.141V347.334H545.795V281.386Z" fill="#24336C"/>
<path d="M573.818 281.386H582.427V347.334H573.818V281.386Z" fill="#24336C"/>
<path d="M441.48 281.386H450.089V347.334H441.48V281.386Z" fill="#24336C"/>
<path d="M571.775 357.909H452.14L383.556 461.208H640.351L571.775 357.909Z" fill="#24336C"/>
<path d="M383.555 471.803H406.171V498.502H383.555V471.803Z" fill="#24336C"/>
<path d="M376.701 498.493H355.083L376.701 471.793V498.493Z" fill="#24336C"/>
<path d="M412.834 471.803H435.45V498.502H412.834V471.803Z" fill="#24336C"/>
<path d="M442.103 471.803H464.718V498.502H442.103V471.803Z" fill="#24336C"/>
<path d="M471.372 471.803H493.988V498.502H471.372V471.803Z" fill="#24336C"/>
<path d="M500.65 471.803H523.266V498.502H500.65V471.803Z" fill="#24336C"/>
<path d="M529.919 471.803H552.534V498.502H529.919V471.803Z" fill="#24336C"/>
<path d="M559.188 471.803H581.804V498.502H559.188V471.803Z" fill="#24336C"/>
<path d="M588.466 471.803H611.082V498.502H588.466V471.803Z" fill="#24336C"/>
<path d="M617.736 471.803H640.351V498.502H617.736V471.803Z" fill="#24336C"/>
<path d="M668.824 498.493H647.205V471.793L668.824 498.493Z" fill="#24336C"/>
<path d="M604.218 540.51H581.602V517.895H604.218V540.51ZM604.218 597.706H581.602V548.976H604.218V597.706ZM550.243 540.51H527.628V517.895H550.243V540.51ZM550.243 597.706H527.628V548.976H550.243V597.706ZM496.279 540.51H473.663V517.895H496.279V540.51ZM496.279 597.706H473.663V548.976H496.279V597.706ZM442.314 540.51H419.698V517.895H442.314V540.51ZM442.314 597.706H419.698V548.976H442.314V597.706ZM355.083 606.535H668.833V509.065H355.083V606.535Z" fill="#24336C"/>
<path d="M347.499 849.834H339.906V610.334C339.906 608.234 341.613 606.537 343.703 606.537C345.802 606.537 347.499 608.234 347.499 610.334V849.834Z" fill="#24336C"/>
<path d="M355.073 606.537H362.666V849.834H355.073V606.537Z" fill="#24336C"/>
<path d="M371.333 606.537H378.926V849.834H371.333V606.537Z" fill="#24336C"/>
<path d="M684 849.834H676.407V610.334C676.407 608.234 678.114 606.537 680.204 606.537C682.303 606.537 684 608.234 684 610.334V849.834Z" fill="#24336C"/>
<path d="M644.982 606.537H652.565V849.834H644.982V606.537Z" fill="#24336C"/>
<path d="M661.231 606.537H668.824V849.834H661.231V606.537Z" fill="#24336C"/>
<path d="M625.702 841.944H398.204V614.437H625.702V841.944ZM390.305 849.834H633.601V606.537H390.305V849.834Z" fill="#24336C"/>
<path d="M613.008 829.25H410.888V627.129H613.008V829.25ZM404.234 835.903H619.671V620.466H404.234V835.903Z" fill="#24336C"/>
<path d="M608.59 728.194C608.59 781.554 565.324 824.811 511.954 824.811C458.593 824.811 415.327 781.554 415.327 728.194C415.327 674.833 458.593 631.567 511.954 631.567C565.324 631.567 608.59 674.833 608.59 728.194Z" fill="#24336C"/>
<path d="M602.943 728.183C602.943 778.428 562.199 819.172 511.954 819.172C461.699 819.172 420.964 778.428 420.964 728.183C420.964 677.928 461.699 637.193 511.954 637.193C562.199 637.193 602.943 677.928 602.943 728.183Z" fill="#ED1F36"/>
<path d="M529.91 728.184C529.91 738.097 521.866 746.141 511.944 746.141C502.031 746.141 493.988 738.097 493.988 728.184C493.988 718.262 502.031 710.218 511.944 710.218C521.866 710.218 529.91 718.262 529.91 728.184Z" fill="#24336C"/>
<path d="M511.953 735.155C510.582 735.155 509.47 734.043 509.47 732.672V643.083C509.47 641.721 510.582 640.609 511.953 640.609C513.324 640.609 514.436 641.721 514.436 643.083V732.672C514.436 734.043 513.324 735.155 511.953 735.155Z" fill="white"/>
<path d="M587.786 728.185C587.786 729.556 586.674 730.668 585.303 730.668H507.025C505.655 730.668 504.542 729.556 504.542 728.185C504.542 726.805 505.655 725.702 507.025 725.702H585.303C586.674 725.702 587.786 726.805 587.786 728.185Z" fill="white"/>
<path d="M343.702 849.833H358.878V855.374H343.702V849.833Z" fill="#24336C"/>
<path d="M665.027 849.833H680.203V855.374H665.027V849.833Z" fill="#24336C"/>
<path d="M633.601 849.833H648.777V855.374H633.601V849.833Z" fill="#24336C"/>
<path d="M375.129 849.833H390.305V855.374H375.129V849.833Z" fill="#24336C"/>
<path d="M410.083 849.833H425.259V855.374H410.083V849.833Z" fill="#24336C"/>
<path d="M441.509 849.833H456.685V855.374H441.509V849.833Z" fill="#24336C"/>
<path d="M472.935 849.833H488.111V855.374H472.935V849.833Z" fill="#24336C"/>
<path d="M504.36 849.833H519.536V855.374H504.36V849.833Z" fill="#24336C"/>
<path d="M535.796 849.833H550.972V855.374H535.796V849.833Z" fill="#24336C"/>
<path d="M567.221 849.833H582.397V855.374H567.221V849.833Z" fill="#24336C"/>
<path d="M598.648 849.833H613.824V855.374H598.648V849.833Z" fill="#24336C"/>
<path d="M355.082 859.066H398.042V879.995H355.082V859.066Z" fill="#24336C"/>
<path d="M409.249 859.066H452.198V879.995H409.249V859.066Z" fill="#24336C"/>
<path d="M463.395 859.066H506.354V879.995H463.395V859.066Z" fill="#24336C"/>
<path d="M517.552 859.066H560.511V879.995H517.552V859.066Z" fill="#24336C"/>
<path d="M571.718 859.066H614.667V879.995H571.718V859.066Z" fill="#24336C"/>
<path d="M625.865 859.066H668.824V879.995H625.865V859.066Z" fill="#24336C"/>
<path d="M339.907 883.685H684V901.19H339.907V883.685Z" fill="#24336C"/>
<path d="M353.932 901.188H361.524V951.088H353.932V901.188Z" fill="#24336C"/>
<path d="M419.813 901.188H427.396V951.088H419.813V901.188Z" fill="#24336C"/>
<path d="M369.108 901.188H412.22V951.088H369.108V901.188Z" fill="#24336C"/>
<path d="M434.798 901.188H442.381V951.088H434.798V901.188Z" fill="#24336C"/>
<path d="M500.66 901.188H508.252V951.088H500.66V901.188Z" fill="#24336C"/>
<path d="M449.964 901.188H493.077V951.088H449.964V901.188Z" fill="#24336C"/>
<path d="M515.645 901.188H523.237V951.088H515.645V901.188Z" fill="#24336C"/>
<path d="M581.526 901.188H589.109V951.088H581.526V901.188Z" fill="#24336C"/>
<path d="M530.83 901.188H573.942V951.088H530.83V901.188Z" fill="#24336C"/>
<path d="M596.51 901.188H604.093V951.088H596.51V901.188Z" fill="#24336C"/>
<path d="M662.381 901.188H669.974V951.088H662.381V901.188Z" fill="#24336C"/>
<path d="M611.686 901.188H654.798V951.088H611.686V901.188Z" fill="#24336C"/>
</svg>
