<svg width="258" height="71" viewBox="0 0 258 71" fill="none" xmlns="http://www.w3.org/2000/svg">
<path d="M0.021759 48.5854H153.252V70.4753H0.021759V48.5854Z" fill="#24336C"/>
<path d="M161.427 51.4801H157.235V53.7848H155.451V49.1768H170.849V53.7848H169.064V51.4801H164.873V68.345H166.522V70.4751H159.777V68.345H161.427V51.4801Z" fill="#24336C"/>
<path d="M182.373 59.3374H182.952C184.208 59.3374 185.149 58.9557 185.773 58.1935C186.397 57.4301 186.71 56.2862 186.71 54.7606C186.71 53.6102 186.44 52.7452 185.901 52.1719C185.361 51.5961 184.553 51.3069 183.476 51.3069H182.373V59.3374ZM182.373 61.3802V68.345H183.755V70.4751H177.422V68.345H179.071V51.3069H177.422V49.1768H184.535C186.311 49.1768 187.68 49.6419 188.639 50.5669C189.597 51.4932 190.077 52.809 190.077 54.517C190.077 55.9657 189.81 57.193 189.277 58.2013C188.745 59.2084 187.942 59.9888 186.87 60.5464L191.225 68.345H192.329V70.4751H188.092L183.644 61.3802H182.373Z" fill="#24336C"/>
<path d="M203.245 62.0863H208.5L205.866 53.5255L203.245 62.0863ZM202.566 64.3037L201.328 68.3463H202.983V70.4751H198.512V68.3463H199.488L205.44 48.9058H208.018L213.964 68.3463H214.936V70.4751H208.77V68.3463H210.426L209.183 64.3037H202.566Z" fill="#24336C"/>
<path d="M226.337 68.1732H228.24C230.181 68.1732 231.637 67.441 232.608 65.9793C233.58 64.5162 234.064 62.3275 234.064 59.4105C234.064 56.7046 233.56 54.6787 232.553 53.3303C231.545 51.9832 230.032 51.3083 228.017 51.3083H226.337V68.1732ZM221.242 70.4766V68.3465H222.893V51.3083H221.242V49.1782H229.394C232.01 49.1782 234.051 50.0824 235.52 51.892C236.988 53.7003 237.721 56.2147 237.721 59.4392C237.721 62.7874 237.01 65.4647 235.587 67.4697C234.163 69.4734 232.263 70.4766 229.884 70.4766H221.242Z" fill="#24336C"/>
<path d="M257.23 70.4756H244.73V68.3455H246.38V51.3073H244.73V49.1772H256.706V53.4387H254.921V51.3073H249.826V58.4025H253.27V56.9785H254.921V61.9578H253.27V60.5325H249.826V68.1722H255.445V65.8571H257.23V70.4756Z" fill="#24336C"/>
<path d="M20.204 1.03418H0V8.77679H5.10572V36.4068H0V44.1507H33.3442V27.6728H25.311V36.4068H13.5049V8.77679H20.204V1.03418ZM17.5984 3.63981V6.17117H10.8993V39.0124H27.9166V30.2784H30.7385V41.5451H2.60562V39.0124H7.71134V6.17117H2.60562V3.63981H17.5984Z" fill="#ED1F36"/>
<path d="M56.4033 36.9852C53.7078 36.9852 51.4852 36.4003 49.7967 35.246C48.0861 34.0787 46.8615 32.4892 46.0498 30.3891C45.1731 28.1144 44.7288 25.3824 44.7288 22.2635C44.7288 19.4989 45.1691 16.9923 46.0381 14.814C46.8511 12.7816 48.0901 11.2052 49.8254 9.9949C51.5177 8.81716 53.7312 8.21917 56.4033 8.21917C59.0623 8.21917 61.1963 8.79892 62.9278 9.9923C64.6827 11.2026 65.9542 12.7999 66.8128 14.8752C67.7247 17.0796 68.1872 19.5641 68.1872 22.2635C68.1872 26.895 67.1554 30.6015 65.1204 33.2788C63.2261 35.7723 60.3743 36.9852 56.4033 36.9852ZM56.4033 0.476562C49.9374 0.476562 44.8578 2.50504 41.305 6.50597C37.8304 10.417 36.0703 15.7195 36.0703 22.2635C36.0703 26.5654 36.8285 30.4269 38.3255 33.7439C39.8836 37.1989 42.2456 39.9283 45.3463 41.8539C48.4171 43.7612 52.1366 44.7279 56.4033 44.7279C60.6361 44.7279 64.3557 43.7651 67.4589 41.863C70.5909 39.9426 72.9933 37.2119 74.601 33.7491C76.1474 30.4113 76.9317 26.5471 76.9317 22.2635C76.9317 15.7377 75.1325 10.4379 71.585 6.50858C67.967 2.50504 62.86 0.476562 56.4033 0.476562ZM56.4033 39.5909C61.2002 39.5909 64.7973 38.0119 67.1958 34.8552C69.5943 31.6971 70.7928 27.5021 70.7928 22.2635C70.7928 19.2058 70.2691 16.4113 69.2203 13.8799C68.1729 11.3459 66.5678 9.33568 64.4065 7.84787C62.2451 6.35745 59.5782 5.61355 56.4033 5.61355C53.1736 5.61355 50.4833 6.36266 48.3363 7.85829C46.1892 9.35262 44.6168 11.3485 43.6188 13.8486C42.6208 16.3474 42.1232 19.1524 42.1232 22.2635C42.1232 25.7211 42.6208 28.7398 43.6188 31.3258C44.6168 33.9119 46.1866 35.9352 48.3259 37.3969C50.4651 38.86 53.158 39.5909 56.4033 39.5909ZM56.4033 3.08219C62.1187 3.08219 66.5353 4.80711 69.6516 8.25565C72.7679 11.7068 74.3261 16.3748 74.3261 22.2635C74.3261 26.1849 73.6291 29.6478 72.2364 32.6521C70.8423 35.6551 68.7969 37.9858 66.0975 39.6417C63.3981 41.2963 60.1658 42.1222 56.4033 42.1222C52.6121 42.1222 49.385 41.2963 46.7208 39.6417C44.0565 37.9858 42.0502 35.6629 40.7005 32.6703C39.3508 29.6817 38.6759 26.211 38.6759 22.2635C38.6759 16.3474 40.2015 11.6716 43.2527 8.23741C46.3052 4.79929 50.6879 3.08219 56.4033 3.08219Z" fill="#ED1F36"/>
<path d="M122.223 1.03418H103.419V8.77679H109.063V29.386L93.5518 2.34351L92.8 1.03418H78.9707V8.77679H83.7533V36.4068H78.9707V44.1507H97.6882V36.4068H92.0431V15.6139L107.73 42.8453L108.483 44.1507H117.462V8.77679H122.223V1.03418ZM119.617 3.63981V6.17117H114.857V41.5451H109.988L89.6108 6.17117H89.4375V39.0124H95.0826V41.5451H81.5763V39.0124H86.3589V6.17117H81.5763V3.63981H91.2914L111.583 39.0124H111.669V6.17117H106.025V3.63981H119.617Z" fill="#ED1F36"/>
<path d="M141.403 8.77776H143.127C148.166 8.77776 151.967 9.80829 154.425 11.8394C156.734 13.748 157.905 17.203 157.905 22.1042C157.905 25.7404 157.342 28.6522 156.233 30.7614C155.196 32.7339 153.716 34.1109 151.707 34.9734C149.49 35.9257 146.603 36.4078 143.127 36.4078H141.403V8.77776ZM143.751 1.03516H127.898V8.77776H133.025V36.4078H127.898V44.1504H143.751C151.078 44.1504 156.765 42.4151 160.65 38.9939C164.631 35.488 166.649 29.8064 166.649 22.1042C166.649 14.7994 164.528 9.36924 160.346 5.9663C156.326 2.69363 150.742 1.03516 143.751 1.03516ZM138.798 39.0134H143.127C146.976 39.0134 150.178 38.4649 152.734 37.368C155.29 36.271 157.226 34.4744 158.541 31.9743C159.855 29.4755 160.51 26.1846 160.51 22.1042C160.51 16.3614 159.036 12.2719 156.085 9.83174C153.134 7.39287 148.814 6.17214 143.127 6.17214H138.798V39.0134ZM143.751 3.64078C150.157 3.64078 155.14 5.0882 158.702 7.98826C162.263 10.8844 164.044 15.5902 164.044 22.1042C164.044 29.0547 162.338 34.0354 158.928 37.0383C155.517 40.0426 150.458 41.5448 143.751 41.5448H130.504V39.0134H135.631V6.17214H130.504V3.64078H143.751Z" fill="#ED1F36"/>
<path d="M191.108 36.9852C188.412 36.9852 186.19 36.4003 184.501 35.246C182.791 34.0787 181.565 32.4892 180.754 30.3891C179.876 28.1144 179.432 25.3824 179.432 22.2635C179.432 19.4989 179.872 16.9923 180.743 14.814C181.554 12.7816 182.793 11.2052 184.53 9.9949C186.222 8.81716 188.436 8.21917 191.108 8.21917C193.765 8.21917 195.899 8.79892 197.632 9.9923C199.387 11.2026 200.659 12.7999 201.517 14.8752C202.429 17.0796 202.892 19.5641 202.892 22.2635C202.892 26.895 201.86 30.6015 199.825 33.2788C197.931 35.7723 195.079 36.9852 191.108 36.9852ZM191.108 0.476562C184.642 0.476562 179.562 2.50504 176.008 6.50597C172.535 10.417 170.773 15.7195 170.773 22.2635C170.773 26.5654 171.533 30.4269 173.03 33.7439C174.588 37.1989 176.95 39.9283 180.049 41.8539C183.12 43.7612 186.841 44.7279 191.108 44.7279C195.341 44.7279 199.06 43.7651 202.163 41.863C205.295 39.9426 207.698 37.2119 209.304 33.7491C210.852 30.4113 211.636 26.5471 211.636 22.2635C211.636 15.7377 209.837 10.4379 206.289 6.50858C202.671 2.50504 197.564 0.476562 191.108 0.476562ZM191.108 39.5909C195.905 39.5909 199.502 38.0119 201.9 34.8552C204.299 31.6971 205.497 27.5021 205.497 22.2635C205.497 19.2058 204.974 16.4113 203.925 13.8799C202.876 11.3459 201.271 9.33568 199.111 7.84787C196.948 6.35745 194.281 5.61355 191.108 5.61355C187.877 5.61355 185.188 6.36266 183.041 7.85829C180.894 9.35262 179.321 11.3485 178.323 13.8486C177.325 16.3474 176.826 19.1524 176.826 22.2635C176.826 25.7211 177.325 28.7398 178.323 31.3258C179.321 33.9119 180.89 35.9352 183.03 37.3969C185.17 38.86 187.861 39.5909 191.108 39.5909ZM191.108 3.08219C196.823 3.08219 201.238 4.80711 204.355 8.25565C207.472 11.7068 209.03 16.3748 209.03 22.2635C209.03 26.1849 208.333 29.6478 206.941 32.6521C205.547 35.6551 203.501 37.9858 200.802 39.6417C198.101 41.2963 194.87 42.1222 191.108 42.1222C187.317 42.1222 184.088 41.2963 181.425 39.6417C178.761 37.9858 176.753 35.6629 175.405 32.6703C174.055 29.6817 173.379 26.211 173.379 22.2635C173.379 16.3474 174.905 11.6716 177.957 8.23741C181.008 4.79929 185.392 3.08219 191.108 3.08219Z" fill="#ED1F36"/>
<path d="M257.251 1.03418H238.448V8.77679H244.092V29.386L228.579 2.34351L227.829 1.03418H213.998V8.77679H218.781V36.4068H213.998V44.1507H232.716V36.4068H227.072V15.6139L242.759 42.8453L243.511 44.1507H252.491V8.77679H257.251V1.03418ZM254.646 3.63981V6.17117H249.885V41.5451H245.017L224.639 6.17117H224.466V39.0124H230.11V41.5451H216.604V39.0124H221.386V6.17117H216.604V3.63981H226.319L246.611 39.0124H246.697V6.17117H241.054V3.63981H254.646Z" fill="#ED1F36"/>
</svg>
